<mxfile host="app.diagrams.net" modified="2022-05-18T11:09:01.560Z" agent="5.0 (Macintosh; Intel Mac OS X 10_15_7) AppleWebKit/537.36 (KHTML, like Gecko) Chrome/101.0.4951.64 Safari/537.36" etag="cxtsvbzT6xDSknUFJEE_" version="18.0.3" type="github">
  <diagram id="XYSDUHxa8FnNzhFP22NK" name="Page-1">
    <mxGraphModel dx="2260" dy="627" grid="1" gridSize="10" guides="1" tooltips="1" connect="1" arrows="1" fold="1" page="1" pageScale="1" pageWidth="850" pageHeight="1100" math="0" shadow="0">
      <root>
        <mxCell id="0" />
        <mxCell id="1" parent="0" />
        <mxCell id="D2MN3MBzmZI97LFbt5y6-1" value="Runtime (wasm/Rust)" style="rounded=0;whiteSpace=wrap;html=1;" parent="1" vertex="1">
          <mxGeometry x="-730" y="290" width="140" height="30" as="geometry" />
        </mxCell>
        <mxCell id="D2MN3MBzmZI97LFbt5y6-2" value="Pallet" style="rounded=0;whiteSpace=wrap;html=1;horizontal=0;" parent="1" vertex="1">
          <mxGeometry x="-730" y="190" width="20" height="70" as="geometry" />
        </mxCell>
        <mxCell id="D2MN3MBzmZI97LFbt5y6-3" value="FRAME(Rust)" style="rounded=0;whiteSpace=wrap;html=1;" parent="1" vertex="1">
          <mxGeometry x="-730" y="260" width="140" height="30" as="geometry" />
        </mxCell>
        <mxCell id="D2MN3MBzmZI97LFbt5y6-4" value="RPC" style="edgeStyle=orthogonalEdgeStyle;rounded=0;orthogonalLoop=1;jettySize=auto;html=1;exitX=-0.003;exitY=0.681;exitDx=0;exitDy=0;startArrow=classic;startFill=1;exitPerimeter=0;" parent="1" source="D2MN3MBzmZI97LFbt5y6-5" target="D2MN3MBzmZI97LFbt5y6-9" edge="1">
          <mxGeometry relative="1" as="geometry" />
        </mxCell>
        <mxCell id="D2MN3MBzmZI97LFbt5y6-5" value="App&lt;br&gt;(universal-dot-front-end)" style="rounded=0;whiteSpace=wrap;html=1;" parent="1" vertex="1">
          <mxGeometry x="-490" y="290" width="140" height="80" as="geometry" />
        </mxCell>
        <mxCell id="D2MN3MBzmZI97LFbt5y6-6" value="React" style="rounded=0;whiteSpace=wrap;html=1;" parent="1" vertex="1">
          <mxGeometry x="-490" y="260" width="140" height="30" as="geometry" />
        </mxCell>
        <mxCell id="D2MN3MBzmZI97LFbt5y6-7" value="Component" style="rounded=0;whiteSpace=wrap;html=1;horizontal=0;" parent="1" vertex="1">
          <mxGeometry x="-490" y="190" width="20" height="70" as="geometry" />
        </mxCell>
        <mxCell id="D2MN3MBzmZI97LFbt5y6-8" value="&lt;h1&gt;RPC&lt;/h1&gt;&lt;p&gt;The following documents explain how to connect to blockchain metadata from Javascript. In essence it explains how to connect blockchain data to front-end application.&lt;/p&gt;&lt;p&gt;Overview:&lt;br&gt;https://polkadot.js.org/docs/&lt;/p&gt;&lt;p&gt;API Documentation:&amp;nbsp;&lt;br&gt;https://polkadot.js.org/docs/api&lt;br&gt;&lt;/p&gt;&lt;p&gt;RPC examples:&lt;br&gt;https://polkadot.js.org/docs/substrate/rpc&lt;br&gt;&lt;/p&gt;" style="text;html=1;strokeColor=none;fillColor=none;spacing=5;spacingTop=-20;whiteSpace=wrap;overflow=hidden;rounded=0;" parent="1" vertex="1">
          <mxGeometry x="-310" y="175" width="240" height="260" as="geometry" />
        </mxCell>
        <mxCell id="D2MN3MBzmZI97LFbt5y6-9" value="Node(Rust)&lt;br&gt;(universal-dot-node)" style="rounded=0;whiteSpace=wrap;html=1;" parent="1" vertex="1">
          <mxGeometry x="-730" y="320" width="140" height="50" as="geometry" />
        </mxCell>
        <mxCell id="D2MN3MBzmZI97LFbt5y6-10" value="Pallet" style="rounded=0;whiteSpace=wrap;html=1;horizontal=0;" parent="1" vertex="1">
          <mxGeometry x="-690" y="190" width="20" height="70" as="geometry" />
        </mxCell>
        <mxCell id="D2MN3MBzmZI97LFbt5y6-11" value="Pallet" style="rounded=0;whiteSpace=wrap;html=1;horizontal=0;" parent="1" vertex="1">
          <mxGeometry x="-670" y="190" width="20" height="70" as="geometry" />
        </mxCell>
        <mxCell id="D2MN3MBzmZI97LFbt5y6-12" value="Pallet" style="rounded=0;whiteSpace=wrap;html=1;horizontal=0;" parent="1" vertex="1">
          <mxGeometry x="-650" y="190" width="20" height="70" as="geometry" />
        </mxCell>
        <mxCell id="D2MN3MBzmZI97LFbt5y6-13" value="Pallet" style="rounded=0;whiteSpace=wrap;html=1;horizontal=0;" parent="1" vertex="1">
          <mxGeometry x="-630" y="190" width="20" height="70" as="geometry" />
        </mxCell>
        <mxCell id="D2MN3MBzmZI97LFbt5y6-14" value="Pallet" style="rounded=0;whiteSpace=wrap;html=1;horizontal=0;" parent="1" vertex="1">
          <mxGeometry x="-610" y="190" width="20" height="70" as="geometry" />
        </mxCell>
        <mxCell id="D2MN3MBzmZI97LFbt5y6-15" value="Pallet" style="rounded=0;whiteSpace=wrap;html=1;horizontal=0;" parent="1" vertex="1">
          <mxGeometry x="-710" y="190" width="20" height="70" as="geometry" />
        </mxCell>
        <mxCell id="D2MN3MBzmZI97LFbt5y6-16" value="Component" style="rounded=0;whiteSpace=wrap;html=1;horizontal=0;" parent="1" vertex="1">
          <mxGeometry x="-430" y="190" width="20" height="70" as="geometry" />
        </mxCell>
        <mxCell id="D2MN3MBzmZI97LFbt5y6-17" value="Component" style="rounded=0;whiteSpace=wrap;html=1;horizontal=0;" parent="1" vertex="1">
          <mxGeometry x="-410" y="190" width="20" height="70" as="geometry" />
        </mxCell>
        <mxCell id="D2MN3MBzmZI97LFbt5y6-18" value="Component" style="rounded=0;whiteSpace=wrap;html=1;horizontal=0;" parent="1" vertex="1">
          <mxGeometry x="-390" y="190" width="20" height="70" as="geometry" />
        </mxCell>
        <mxCell id="D2MN3MBzmZI97LFbt5y6-19" value="Component" style="rounded=0;whiteSpace=wrap;html=1;horizontal=0;" parent="1" vertex="1">
          <mxGeometry x="-370" y="190" width="20" height="70" as="geometry" />
        </mxCell>
        <mxCell id="D2MN3MBzmZI97LFbt5y6-20" value="Component" style="rounded=0;whiteSpace=wrap;html=1;horizontal=0;" parent="1" vertex="1">
          <mxGeometry x="-450" y="190" width="20" height="70" as="geometry" />
        </mxCell>
        <mxCell id="D2MN3MBzmZI97LFbt5y6-21" value="Component" style="rounded=0;whiteSpace=wrap;html=1;horizontal=0;" parent="1" vertex="1">
          <mxGeometry x="-470" y="190" width="20" height="70" as="geometry" />
        </mxCell>
        <mxCell id="xSVX6aapulrCaZrCg8h8-2" value="React" style="rounded=0;whiteSpace=wrap;html=1;" vertex="1" parent="1">
          <mxGeometry x="-690" y="500" width="120" height="60" as="geometry" />
        </mxCell>
        <mxCell id="xSVX6aapulrCaZrCg8h8-3" value="Tensorflow" style="rounded=0;whiteSpace=wrap;html=1;" vertex="1" parent="1">
          <mxGeometry x="-550" y="500" width="120" height="60" as="geometry" />
        </mxCell>
        <mxCell id="xSVX6aapulrCaZrCg8h8-4" value="IPFS" style="rounded=0;whiteSpace=wrap;html=1;" vertex="1" parent="1">
          <mxGeometry x="-550" y="580" width="120" height="60" as="geometry" />
        </mxCell>
        <mxCell id="xSVX6aapulrCaZrCg8h8-5" value="Substrate" style="rounded=0;whiteSpace=wrap;html=1;" vertex="1" parent="1">
          <mxGeometry x="-690" y="580" width="120" height="60" as="geometry" />
        </mxCell>
        <mxCell id="xSVX6aapulrCaZrCg8h8-6" value="" style="rounded=0;whiteSpace=wrap;html=1;" vertex="1" parent="1">
          <mxGeometry x="-710" y="730" width="310" height="180" as="geometry" />
        </mxCell>
        <mxCell id="xSVX6aapulrCaZrCg8h8-7" value="Substrate" style="text;html=1;strokeColor=none;fillColor=none;align=center;verticalAlign=middle;whiteSpace=wrap;rounded=0;" vertex="1" parent="1">
          <mxGeometry x="-590" y="700" width="60" height="30" as="geometry" />
        </mxCell>
        <mxCell id="xSVX6aapulrCaZrCg8h8-8" value="Storage" style="rounded=0;whiteSpace=wrap;html=1;" vertex="1" parent="1">
          <mxGeometry x="-700" y="840" width="110" height="60" as="geometry" />
        </mxCell>
        <mxCell id="xSVX6aapulrCaZrCg8h8-9" value="WASM Runtime" style="rounded=0;whiteSpace=wrap;html=1;" vertex="1" parent="1">
          <mxGeometry x="-700" y="880" width="110" height="20" as="geometry" />
        </mxCell>
        <mxCell id="xSVX6aapulrCaZrCg8h8-10" value="Consensus" style="rounded=0;whiteSpace=wrap;html=1;" vertex="1" parent="1">
          <mxGeometry x="-580" y="840" width="80" height="60" as="geometry" />
        </mxCell>
        <mxCell id="xSVX6aapulrCaZrCg8h8-11" value="P2P networking" style="rounded=0;whiteSpace=wrap;html=1;" vertex="1" parent="1">
          <mxGeometry x="-700" y="740" width="80" height="60" as="geometry" />
        </mxCell>
        <mxCell id="xSVX6aapulrCaZrCg8h8-12" value="RPC" style="rounded=0;whiteSpace=wrap;html=1;" vertex="1" parent="1">
          <mxGeometry x="-490" y="740" width="80" height="60" as="geometry" />
        </mxCell>
        <mxCell id="xSVX6aapulrCaZrCg8h8-13" value="Telemetry" style="rounded=0;whiteSpace=wrap;html=1;" vertex="1" parent="1">
          <mxGeometry x="-595" y="740" width="80" height="60" as="geometry" />
        </mxCell>
        <mxCell id="xSVX6aapulrCaZrCg8h8-14" value="Native Runtume" style="rounded=0;whiteSpace=wrap;html=1;dashed=1;" vertex="1" parent="1">
          <mxGeometry x="-490" y="840" width="80" height="60" as="geometry" />
        </mxCell>
        <mxCell id="xSVX6aapulrCaZrCg8h8-15" value="&lt;h1&gt;Substrate&lt;/h1&gt;&lt;p&gt;The Substrate client is an application that runs a Substrate-based blockchain node. It consists of several components that include, but are not limited to, the following:&amp;nbsp;&lt;/p&gt;&lt;p&gt;Storage: used to persist the evolving state of a Substrate blockchain. The blockchain network allows participants to reach trustless consensus about the state of storage. Substrate ships with a simple and highly efficient key-value storage mechanism.&amp;nbsp;&lt;/p&gt;&lt;p&gt;Runtime: the logic that defines how blocks are processed, including state transition logic. In Substrate, runtime code is compiled to Wasm and becomes part of the blockchain&#39;s storage state. This enables one of the defining features of a Substrate-based blockchain: forkless runtime upgrades. Substrate clients may also include a &quot;native runtime&quot; that is compiled for the same platform as the client itself (as opposed to Wasm). The component of the client that dispatches calls to the runtime is known as the executor, whose role is to select between the native code and interpreted Wasm. Although the native runtime may offer a performance advantage, the executor will select to interpret the Wasm runtime if it implements a newer version.&amp;nbsp;&lt;/p&gt;&lt;p&gt;Peer-to-peer network: the capabilities that allow the client to communicate with other network participants. Substrate uses the Rust implementation of the libp2p network stack to achieve this.&amp;nbsp;&lt;/p&gt;&lt;p&gt;Consensus: the logic that allows network participants to agree on the state of the blockchain. Substrate makes it possible to supply custom consensus engines and also ships with several consensus mechanisms that have been built on top of Web3 Foundation research.&lt;/p&gt;&lt;p&gt;RPC (remote procedure call): the capabilities that allow blockchain users to interact with the network. Substrate provides HTTP and WebSocket RPC servers.&amp;nbsp;&lt;/p&gt;&lt;p&gt;Telemetry: client metrics that are exposed by the embedded Prometheus server.&lt;/p&gt;" style="text;html=1;strokeColor=none;fillColor=none;spacing=5;spacingTop=-20;whiteSpace=wrap;overflow=hidden;rounded=0;dashed=1;" vertex="1" parent="1">
          <mxGeometry x="-790" y="1120" width="430" height="570" as="geometry" />
        </mxCell>
        <mxCell id="xSVX6aapulrCaZrCg8h8-16" value="" style="rounded=0;whiteSpace=wrap;html=1;" vertex="1" parent="1">
          <mxGeometry x="-260" y="730" width="310" height="180" as="geometry" />
        </mxCell>
        <mxCell id="xSVX6aapulrCaZrCg8h8-17" value="React" style="text;html=1;strokeColor=none;fillColor=none;align=center;verticalAlign=middle;whiteSpace=wrap;rounded=0;" vertex="1" parent="1">
          <mxGeometry x="-135" y="700" width="60" height="30" as="geometry" />
        </mxCell>
        <mxCell id="xSVX6aapulrCaZrCg8h8-20" value="Substrate-lib" style="rounded=0;whiteSpace=wrap;html=1;" vertex="1" parent="1">
          <mxGeometry x="-245" y="740" width="80" height="60" as="geometry" />
        </mxCell>
        <mxCell id="xSVX6aapulrCaZrCg8h8-21" value="Components" style="rounded=0;whiteSpace=wrap;html=1;" vertex="1" parent="1">
          <mxGeometry x="-150" y="740" width="80" height="60" as="geometry" />
        </mxCell>
        <mxCell id="xSVX6aapulrCaZrCg8h8-22" value="Redux" style="rounded=0;whiteSpace=wrap;html=1;" vertex="1" parent="1">
          <mxGeometry x="-50" y="740" width="80" height="60" as="geometry" />
        </mxCell>
        <mxCell id="xSVX6aapulrCaZrCg8h8-19" value="WebSocket :9944" style="edgeStyle=orthogonalEdgeStyle;rounded=0;orthogonalLoop=1;jettySize=auto;html=1;entryX=0;entryY=0.5;entryDx=0;entryDy=0;startArrow=classic;startFill=1;" edge="1" parent="1" source="xSVX6aapulrCaZrCg8h8-12" target="xSVX6aapulrCaZrCg8h8-20">
          <mxGeometry relative="1" as="geometry" />
        </mxCell>
        <mxCell id="xSVX6aapulrCaZrCg8h8-23" value="" style="rounded=0;whiteSpace=wrap;html=1;" vertex="1" parent="1">
          <mxGeometry x="-260" y="1000" width="310" height="180" as="geometry" />
        </mxCell>
        <mxCell id="xSVX6aapulrCaZrCg8h8-24" value="Tensorflow" style="text;html=1;strokeColor=none;fillColor=none;align=center;verticalAlign=middle;whiteSpace=wrap;rounded=0;" vertex="1" parent="1">
          <mxGeometry x="-140" y="970" width="60" height="30" as="geometry" />
        </mxCell>
      </root>
    </mxGraphModel>
  </diagram>
</mxfile>
